<?xml version="1.0" encoding="utf-8"?>
<!-- Generator: Adobe Illustrator 26.1.0, SVG Export Plug-In . SVG Version: 6.00 Build 0)  -->
<!DOCTYPE svg PUBLIC "-//W3C//DTD SVG 1.1//EN" "http://www.w3.org/Graphics/SVG/1.1/DTD/svg11.dtd" [
	<!ENTITY ns_extend "http://ns.adobe.com/Extensibility/1.0/">
	<!ENTITY ns_ai "http://ns.adobe.com/AdobeIllustrator/10.0/">
	<!ENTITY ns_graphs "http://ns.adobe.com/Graphs/1.0/">
	<!ENTITY ns_vars "http://ns.adobe.com/Variables/1.0/">
	<!ENTITY ns_imrep "http://ns.adobe.com/ImageReplacement/1.0/">
	<!ENTITY ns_sfw "http://ns.adobe.com/SaveForWeb/1.0/">
	<!ENTITY ns_custom "http://ns.adobe.com/GenericCustomNamespace/1.0/">
	<!ENTITY ns_adobe_xpath "http://ns.adobe.com/XPath/1.0/">
]>
<svg version="1.1" id="Layer_1" xmlns:x="&ns_extend;" xmlns:i="&ns_ai;" xmlns:graph="&ns_graphs;"
	 xmlns="http://www.w3.org/2000/svg" xmlns:xlink="http://www.w3.org/1999/xlink" x="0px" y="0px" viewBox="0 0 198.4 198.4"
	 style="enable-background:new 0 0 198.4 198.4;" xml:space="preserve">
<style type="text/css">
	.st0{fill:#0A293A;}
</style>
<metadata>
	<sfw  xmlns="&ns_sfw;">
		<slices></slices>
		<sliceSourceBounds  bottomLeftOrigin="true" height="146.7" width="118.7" x="39.9" y="26.7"></sliceSourceBounds>
	</sfw>
</metadata>
<g>
	<path class="st0" d="M156.6,46c-1.5-5-4-9.3-7.6-12.7c-8-7.8-17.8-10.1-30.1-7.1c-4.5,1.1-8.8,3.1-12.7,5.1
		c-4.7,2.4-9.3,2.4-14.1,0c-6.7-3.5-12.2-5.3-17.8-6c-5.9-0.7-10.9-0.2-15.2,1.6c-10.2,4.3-16.5,12.5-18.5,24.5
		c-0.8,4.9-0.9,10.2-0.2,16.4c0.7,6.3,2.1,12.5,4.2,18.4c0.8,2.4,1.8,4.7,2.7,7c0.9,2.2,1.8,4.5,2.6,6.7c1,2.8,2.1,6.6,1.2,10.8
		c-0.5,2.5-0.8,5.1-1.1,7.5v0.1c-1.1,10.8,0,21.3,3.5,31.2c2.1,6,5.1,11.8,9,17.1c2.2,3,4.9,4.6,8.1,4.9c6.3,0.5,11.3-3.6,12.4-9.9
		l0.3-1.7c0.1-0.8,0.3-1.7,0.4-2.5c0.6-3.3,1.1-6.5,1.7-9.8l1.7-9.8c0.2-1.2,0.4-2.4,0.6-3.6c0.3-1.8,0.6-3.6,0.9-5.4l0.1-0.6
		c0.2-1.4,0.5-2.7,1-4c0.7-2,2.1-3.5,4.2-4.4c1.3-0.6,2.6-0.7,3.9-0.7c0.5,0,1.1,0,1.6,0s0.9,0,1.4,0c5,0.1,8.1,2.9,8.8,8
		c0.5,3.5,1.1,7,1.7,10.3l0.6,3.2c0.7,4.3,1.5,8.5,2.3,12.8l0.4,2.3c0.5,2.6,0.9,5.3,1.6,8c0.5,2.3,1.8,4.2,3.6,5.5
		c2.5,1.9,5.5,2.7,8.3,2.4c3.1-0.3,5.7-2,7.7-4.7c2.7-3.7,5-7.6,6.9-11.5c3.1-6.7,5.1-13.9,5.8-21.5c0.6-6.8,0.3-14.1-1.1-23.6
		c-0.5-3.3-0.2-6.5,0.9-9.6c0.8-2.3,1.7-4.6,2.6-6.8v-0.1c1.2-3.1,2.5-6.2,3.5-9.4c2.8-8.4,4.1-16.4,4.2-25.2
		C158.9,54.8,157.6,49.6,156.6,46z M152,68.2c-0.6,4.3-1.6,8.5-2.7,12.4c0,0.1-0.1,0.3-0.1,0.4l0,0l-0.3,1c-0.6,2.1-1.3,4.1-2.1,6.4
		c-0.3,1-0.7,2-1,3l-0.4,1.3l-0.1-0.1l-0.1,0.2c-0.8,2-2.3,5.7-3.2,8.5c-0.9,3.5-1,7.2-0.1,11.8c1.6,9,1.7,16.9,0.3,24.3
		c-2,10.2-5.5,18.5-10.8,25.4c-1.4,1.8-2.6,2.6-4.2,2.6c-0.7,0-1.5-0.2-2.3-0.5c-1.7-0.6-2.6-1.8-3.1-3.9c-0.6-2.7-1.1-5.6-1.5-8.3
		l-1.4-7.9c-1.2-6.8-2.4-13.6-3.6-20.4c-1-6.1-6.5-10.5-11.1-11.1c-1.7-0.2-3.6-0.5-5.6-0.5c-2.3,0-4.4,0.3-6.2,1
		c-4.2,1.5-7,4.4-8.2,8.7c-0.7,2.4-1.1,4.9-1.6,7.3l-0.3,1.5c-0.3,1.4-0.5,2.8-0.7,4.1v0.2c-0.2,1.1-0.3,2.2-0.5,3.4
		c-1.1,6.6-2.3,13.3-3.5,19.9c-0.1,0.5-0.2,1-0.4,1.5c-0.1,0.5-0.3,0.9-0.4,1.4c-0.3,1.6-1.8,3-3.7,3.5c-2,0.5-3.9-0.1-5.1-1.6
		c-3.1-3.9-5.7-8.3-7.8-13.6c-1.8-4.5-3.1-9.2-3.8-13.9c-0.7-4.5-1.2-9.9-0.5-15.4c0.1-0.8,0.2-1.6,0.3-2.4c0.4-2.8,0.8-5.7,0.9-8.5
		c0.2-2.7,0.3-5.6-0.4-8.4c-0.8-2.9-2.7-7.3-3.5-9.1l-0.5-1.1L52,89.4c-0.3-0.8-0.7-1.8-0.9-2.6L51,86.6c-0.2-0.5-0.3-1-0.5-1.5
		c-0.3-0.9-0.7-1.9-1.1-3.1L49,80.9l0,0c-1.5-4.9-2.5-9.8-2.9-14.7c-0.7-7.2-0.9-15.5,3.3-23.1c4.1-7.5,9.9-11.5,17.9-12.3
		c5.8-0.6,11.7,0.6,18.3,3.6l1.2,0.5c2,0.9,4,1.9,6.1,2.7c3.2,1.4,6.5,1.7,9.8,1l4.8-1.7c0.4-0.2,0.8-0.4,1.2-0.6
		c5.8-3.3,11-5,16.4-5.6c10-1.1,18,2.8,23.1,11c2,3.3,3.2,7.1,3.9,12.2C152.7,58.5,152.6,63,152,68.2z"/>
	<path class="st0" d="M89,56.2l-3.4,14.3c-0.3,1.3,0.5,2.7,1.9,3c0.2,0,0.4,0.1,0.6,0.1c1.1,0,2.2-0.8,2.4-1.9l2.7-11.5l13.3-4.2
		l3.1,14.6l-7,15.2c-0.6,1.3,0,2.7,1.2,3.3c0.3,0.2,0.7,0.2,1,0.2c0.9,0,1.9-0.5,2.3-1.5l7.7-16.7l-1.7-8h8.3l7.6,8.6
		c0.5,0.6,1.2,0.8,1.9,0.8c0.6,0,1.2-0.2,1.7-0.6c1-0.9,1.1-2.5,0.2-3.5l-9.1-10.3h-11.4c-0.1,0-0.1,0-0.1,0l-4.5-21l-4.8,1.7
		l2.6,12.2L89,56.2z"/>
</g>
</svg>
