<?xml version="1.0" encoding="utf-8"?>
<!-- Generator: Adobe Illustrator 26.1.0, SVG Export Plug-In . SVG Version: 6.00 Build 0)  -->
<!DOCTYPE svg PUBLIC "-//W3C//DTD SVG 1.1//EN" "http://www.w3.org/Graphics/SVG/1.1/DTD/svg11.dtd" [
	<!ENTITY ns_extend "http://ns.adobe.com/Extensibility/1.0/">
	<!ENTITY ns_ai "http://ns.adobe.com/AdobeIllustrator/10.0/">
	<!ENTITY ns_graphs "http://ns.adobe.com/Graphs/1.0/">
	<!ENTITY ns_vars "http://ns.adobe.com/Variables/1.0/">
	<!ENTITY ns_imrep "http://ns.adobe.com/ImageReplacement/1.0/">
	<!ENTITY ns_sfw "http://ns.adobe.com/SaveForWeb/1.0/">
	<!ENTITY ns_custom "http://ns.adobe.com/GenericCustomNamespace/1.0/">
	<!ENTITY ns_adobe_xpath "http://ns.adobe.com/XPath/1.0/">
]>
<svg version="1.1" id="Layer_1" xmlns:x="&ns_extend;" xmlns:i="&ns_ai;" xmlns:graph="&ns_graphs;"
	 xmlns="http://www.w3.org/2000/svg" xmlns:xlink="http://www.w3.org/1999/xlink" x="0px" y="0px" viewBox="0 0 198.4 198.4"
	 style="enable-background:new 0 0 198.4 198.4;" xml:space="preserve">
<style type="text/css">
	.st0{fill:none;}
	.st1{fill:#0A293A;}
	.st2{fill:#253356;}
</style>
<metadata>
	<sfw  xmlns="&ns_sfw;">
		<slices></slices>
		<sliceSourceBounds  bottomLeftOrigin="true" height="147.3" width="122.5" x="37" y="26"></sliceSourceBounds>
	</sfw>
</metadata>
<polygon class="st0" points="124.7,79.3 124.7,79.3 124.7,79.3 "/>
<path class="st1" d="M95.8,58.3L95.8,58.3c0,1.2,0.6,2.1,1.8,2.6c1.2,0.5,2.3,0.3,3.2-0.6c0.6-0.6,0.9-1.3,0.9-2.4
	c0-7.1,0-14.2,0-21.3l0-8.1c0-0.1,0-0.1,0-0.2c-0.1-1.4-0.7-2.3-1.9-2.8l-0.2-0.1h0L99,25.2l-1,0.1c-1,0.3-2.2,1.1-2.2,2.9
	c0,3.2,0,6.5,0,9.7l0,3.2l0,4.6C95.8,49.9,95.8,54.1,95.8,58.3z"/>
<path class="st1" d="M55.4,49.7l0.8,0.8l15.1,14.9c0.3,0.3,0.6,0.6,0.9,0.9c0.8,0.8,1.5,1.5,2.3,2.2c0.9,0.8,2,0.9,3.1,0.3
	c1.1-0.5,1.6-1.5,1.7-2.8c0-0.9-0.3-1.7-1.1-2.4L63.3,48.9c-1.2-1.2-2.5-2.4-3.7-3.6L57.3,43c-0.6-0.6-1.4-0.9-2.2-0.8
	c-1.3,0.1-2.2,0.8-2.6,2.1c-0.4,1.3-0.2,2.4,0.8,3.3C54,48.3,54.7,49,55.4,49.7z"/>
<path class="st1" d="M120.7,69.1l0.5,0.1h0.1l0.6-0.1c0.5-0.1,1-0.4,1.6-0.9c0.7-0.7,1.4-1.4,2.1-2.1L139,52.9
	c1.8-1.8,3.5-3.5,5.3-5.3c1.3-1.3,1.4-3.2,0.1-4.5c-0.6-0.6-1.3-0.9-2-0.9c-0.8,0-1.6,0.3-2.2,1l-15.5,15.3
	c-1.8,1.8-3.6,3.5-5.3,5.3c-0.9,0.9-1.2,2-0.8,3.2C118.7,68.1,119.5,68.8,120.7,69.1z"/>
<g>
	<path class="st2" d="M159.4,154.7c-0.4-1.2-1.2-1.9-2.3-2.1l-0.3-0.1l-0.8,0.1l-0.1,0c-0.1,0.1-0.3,0.1-0.5,0.2
		c-0.4,0.2-0.7,0.3-1,0.5c-2.6,1.8-5.3,3.4-8.1,4.7c-0.2,0.1-0.3,0.1-0.5,0.2l-1.1,0.5l-0.1-0.9c-0.3-2.3,0.1-5.2,1-7.5
		c0.8-2.1,1.6-4.2,2.5-6.3l0.1-0.2c1.7-4.3,3.4-8.7,4.7-13.2c1.2-4.6,2-8.8,2.2-13.1c0.1-1.4,0.2-2.9,0.2-4.3c0.1-2.3,0-4.1-0.2-5.7
		c-0.3-2.4-0.9-4.8-1.5-7c-1.2-4.5-3.3-8.4-6.1-11.5c-5.1-5.5-11.3-8.6-18.4-9.1l-1.5,0l-2.6,0l-2,0.2l-1.7,0.3
		c-0.6,0.1-1.2,0.3-1.8,0.4c-1.3,0.3-2.7,0.6-4,1c-3.5,1-6.8,2.6-10.1,4.2l-0.1,0c-1.7,0.8-3.4,1.3-5.1,1.4
		c-2.5,0.2-4.9-0.3-7.5-1.5c-1.7-0.8-3.6-1.7-5.5-2.5c-3.3-1.4-6.6-2.3-9.8-2.9l-0.7-0.1l-4.8-0.4l-0.9,0l-1.1,0L66,80.5
		c-1.7,0.3-3.5,0.8-5.2,1.5c-5.5,2.3-9.6,5.7-12.6,10.3c-3.1,4.8-4.8,10.5-5.2,17.4c-0.3,4.7,0.1,9.6,1.1,15.1
		c0.9,5,2.1,9.3,3.7,13.3c0.7,1.9,1.5,3.8,2.3,5.8c0.7,1.8,1.5,3.7,2.2,5.5c0.8,2,1.7,4.8,1.6,7.8l-0.1,1.1l-1.3-0.4
		c-3.3-1.2-6.7-2.8-10.4-4.7c-0.3-0.1-0.5-0.2-0.9-0.4c-0.1-0.1-0.3-0.1-0.4-0.2l-0.9-0.1l-0.2,0.1c-1.4,0.3-2.2,1.1-2.5,2.6
		c-0.2,1.2,0.5,2.5,1.5,3l0.9,0.4c2.8,1.4,5.6,2.8,8.5,4c6.9,2.9,14.2,5.2,22.4,6.8c1.7,0.3,3.4,0.6,5.1,0.9
		c0.8,0.1,1.6,0.3,2.4,0.4l0.7,0.1l9.3,1.1l7.5,0.4l3.9,0.1l2.7,0l2.7,0l9.1-0.4l0,0l0,0.1l0.3,0l0.6-0.1l3.4-0.3l7.3-1
		c0.1,0,0.2,0,0.3,0c4.9-0.9,9.1-1.9,13-3.1c7.4-2.3,13.6-5.4,19-9.3c0.3-0.2,0.6-0.4,0.8-0.7C159.5,156.7,159.7,155.7,159.4,154.7z
		 M138.5,160.2c0,0.1,0,0.1,0,0.2c0,0.1,0,0.1,0,0.2l0.1,0.5l-0.8,0.3c-0.5,0.1-0.9,0.3-1.4,0.4c-1,0.3-2,0.7-3.1,0.9
		c-2,0.5-4,0.9-5.9,1.3l-0.1,0c-0.8,0.2-1.6,0.3-2.4,0.5l-2.2,0.4l-8.9,1l-8.3,0.4l-7.3,0l-6.4-0.3l-5-0.4l-9.9-1.3
		c-0.5-0.1-1-0.2-1.6-0.3l-0.2,0c-1.3-0.2-2.7-0.5-4-0.8c-2.9-0.7-5.9-1.5-8.8-2.2l-1.4-0.4c-1.2-0.3-1.5-0.6-1.4-1.9
		c0-0.4,0-0.9,0.1-1.4c0-0.3,0-0.6,0-0.9c0.1-2.9-0.4-5.8-1.6-8.6c-0.2-0.6-0.5-1.2-0.8-1.8c-0.7-1.6-1.4-3.4-2.1-5.1l0-0.1
		c-1.5-4.1-3.1-8.3-4.1-12.7c-0.9-3.9-1.5-7.1-1.7-10.2c-0.2-2.5-0.3-4.8-0.3-7.1c0.1-5,1.2-9.6,3.4-13.5c2.2-4.1,5-7,8.5-8.9
		c2.5-1.4,5.3-2.2,8.3-2.4l1.2-0.1l2.9,0l0.4,0.1l0.1,0l2.5,0.3l0.6,0.1c4.1,0.7,7.8,2.3,10.6,3.6c1.5,0.7,3.1,1.4,4.6,2l0.6,0.3
		c1.9,0.8,3.8,1.3,5.7,1.4l1.5,0c2.5-0.1,4.9-0.8,7.7-2.2l0.2-0.1c1.9-1,3.9-2,5.9-2.8c4-1.7,8.2-2.6,12.5-2.6l0.6,0l3.7,0.3
		c5.5,0.9,10,3.8,13.5,8.5c2.2,3,3.6,6.5,4.3,10.9c0.5,2.8,0.7,5.6,0.6,8.2c-0.1,4.7-0.9,9.5-2.2,14.6c-1.2,4.7-2.8,9.4-4.3,13.4
		c-0.4,1.1-0.9,2.3-1.4,3.4c-0.4,0.8-0.7,1.7-1.1,2.6c-0.7,1.9-1.3,3.6-1.6,5.4C138.2,155.5,138.2,157.7,138.5,160.2z"/>
	<path class="st1" d="M112.8,98c-1.1-0.1-2,0.4-3,1c-1.9,1.1-4,1.9-6.3,2.3l-0.3,0.1l-2.9,0.3l-2.4,0c-0.3,0-0.5-0.1-0.8-0.1
		c-0.5,0-1.1-0.1-1.6-0.2c-2.4-0.4-4.7-1.2-7-2.4c-0.6-0.3-1.3-0.7-2-0.8c-1-0.2-1.9,0-2.6,0.6c-0.6,0.5-0.9,1.3-0.9,2.2
		c0.1,0.9,0.5,1.6,1.4,2.2c0.5,0.4,1.1,0.7,1.7,1c3.5,1.8,6.9,2.9,10.4,3.3l0.7,0.1l1.8,0.1l0.2,0l4.7-0.7c3.9-0.5,7.4-1.8,10.4-4
		c0.2-0.1,0.3-0.3,0.5-0.4c0.8-0.9,1-1.7,0.6-2.7C114.9,98.7,114,98.1,112.8,98z"/>
</g>
<path class="st2" d="M70.9,125L70.9,125L70.9,125z"/>
</svg>
