<?xml version="1.0" encoding="utf-8"?>
<!-- Generator: Adobe Illustrator 26.1.0, SVG Export Plug-In . SVG Version: 6.00 Build 0)  -->
<!DOCTYPE svg PUBLIC "-//W3C//DTD SVG 1.1//EN" "http://www.w3.org/Graphics/SVG/1.1/DTD/svg11.dtd" [
	<!ENTITY ns_extend "http://ns.adobe.com/Extensibility/1.0/">
	<!ENTITY ns_ai "http://ns.adobe.com/AdobeIllustrator/10.0/">
	<!ENTITY ns_graphs "http://ns.adobe.com/Graphs/1.0/">
	<!ENTITY ns_vars "http://ns.adobe.com/Variables/1.0/">
	<!ENTITY ns_imrep "http://ns.adobe.com/ImageReplacement/1.0/">
	<!ENTITY ns_sfw "http://ns.adobe.com/SaveForWeb/1.0/">
	<!ENTITY ns_custom "http://ns.adobe.com/GenericCustomNamespace/1.0/">
	<!ENTITY ns_adobe_xpath "http://ns.adobe.com/XPath/1.0/">
]>
<svg version="1.1" id="Layer_1" xmlns:x="&ns_extend;" xmlns:i="&ns_ai;" xmlns:graph="&ns_graphs;"
	 xmlns="http://www.w3.org/2000/svg" xmlns:xlink="http://www.w3.org/1999/xlink" x="0px" y="0px" viewBox="0 0 198.4 198.4"
	 style="enable-background:new 0 0 198.4 198.4;" xml:space="preserve">
<style type="text/css">
	.st0{fill:#0A293A;}
</style>
<metadata>
	<sfw  xmlns="&ns_sfw;">
		<slices></slices>
		<sliceSourceBounds  bottomLeftOrigin="true" height="143.9" width="81.2" x="58.1" y="26"></sliceSourceBounds>
	</sfw>
</metadata>
<path class="st0" d="M81.1,93.5v61.8c0,2.8,1.3,5.4,3.4,7.1l10.8,8.5c1.3,1,2.8,1.5,4.4,1.5s3.2-0.5,4.5-1.6l10.1-8.4
	c2.1-1.7,3.3-4.3,3.3-6.9v-62H81.1z M112.5,149.2c-9.1,2.6-20.7,3.1-26.3,3.2v-6c5.8-0.1,16.7-0.6,26.3-2.9V149.2z M112.5,116
	c-9.1,2.6-20.7,3.1-26.3,3.2v-6c5.5-0.1,16.7-0.6,26.3-3V116z M112.5,121.3v5.9c-9.1,2.4-20.4,2.9-26.3,3v-5.9
	C91.7,124.3,102.9,123.8,112.5,121.3z M112.5,138.3c-9.1,2.4-20.4,2.9-26.3,3v-6c5.8-0.1,16.7-0.6,26.3-2.9V138.3z M112.5,98.6v6.4
	c-9.1,2.6-20.7,3.1-26.3,3.2v-9.6H112.5z M111.1,158.4l-10.1,8.4c-0.5,0.4-0.9,0.5-1.3,0.5c-0.3,0-0.8-0.1-1.2-0.4l-10.8-8.5
	c-0.3-0.2-0.5-0.5-0.7-0.8c5.7-0.1,16.4-0.7,25.5-3v0.9C112.5,156.6,112,157.7,111.1,158.4z"/>
<g>
	<path class="st0" d="M111.7,46.6L111.7,46.6c-0.5,0.2-0.9,0.5-1.3,0.7l-0.4,0.3c-3.1,1.9-6.7,2.8-11,2.9c-4.4,0.1-8.5-1.1-12.6-3.4
		c-0.8-0.5-1.6-0.7-2.4-0.7c-1,0-1.8,0.4-2.3,1.2c-0.4,0.7-0.5,1.4-0.4,2.1c0.2,0.6,0.6,1.6,2,2.4c5.1,3,10.2,4.6,15.4,4.7
		c0.8-0.1,1.7-0.3,2.5-0.4c1.8-0.3,3.8-0.6,5.6-1c2.8-0.7,5.4-2,7.8-3.8c1.5-1.1,1.8-2.5,0.9-3.9C114.8,46.3,113.3,45.9,111.7,46.6z
		"/>
	<path class="st0" d="M138.1,43.4c-1-3.5-2.8-6.5-5.3-9c-5.6-5.5-12.5-7.1-21.1-5c-3.1,0.8-6,2.1-8.7,3.5c-2.9,1.5-5.5,1.5-8.4,0
		c-4.6-2.4-8.4-3.6-12.3-4.1c-4.2-0.5-7.7-0.1-10.7,1.1c-7.2,3-11.6,8.8-13,17.1c-0.6,3.4-0.6,7-0.1,11.3s1.5,8.5,2.9,12.5
		c0.5,1.4,1.1,2.8,1.7,4.3l0.2,0.6l0,0l0,0l0,0l0,0c0.5,1,6.4,13.1,14.8,19.8c2.9,2.3,6.6,3.6,10.5,3.6h5.7h8.9h5.7
		c3.9,0,7.6-1.3,10.5-3.6c8.5-6.8,14.6-19.3,14.8-19.8l0,0l0.2-0.6c0.7-1.8,1.4-3.7,2.1-5.6c1.9-5.7,2.8-11.2,2.8-17.1
		C139.6,49.4,138.8,45.9,138.1,43.4z M115.9,91.1c-1.9,1.5-4.4,2.4-6.9,2.4h-5.7h-8.9h-5.7c-2.6,0-5-0.8-6.9-2.4
		c-5.4-4.3-9.9-11.6-12-15.4l-0.9-2.1l-0.5-1.3c-0.2-0.5-0.4-1.1-0.6-1.7v-0.1c-0.1-0.3-0.2-0.7-0.3-1c-0.2-0.6-0.4-1.3-0.7-2.1
		l-0.2-0.7c-1-3.2-1.6-6.4-1.9-9.6c-0.5-4.6-0.6-10,2.1-14.8c2.5-4.6,6.2-7.1,11.1-7.6c3.7-0.4,7.4,0.4,11.7,2.3l0.8,0.4
		c1.3,0.6,2.7,1.2,4.1,1.8c3.7,1.6,7.6,1.3,11.4-0.9c3.7-2.1,7.1-3.3,10.5-3.6c6.3-0.7,11.2,1.7,14.4,6.9c1.3,2.1,2,4.5,2.4,7.7
		c0.3,2.7,0.3,5.7-0.1,9c-0.4,2.8-1.1,5.6-1.8,8.1l-0.3,1c-0.4,1.3-0.9,2.7-1.4,4.1c-0.1,0.4-0.3,0.8-0.5,1.2
		c-0.2,0.5-0.4,0.9-0.5,1.4l-0.3,1C126.2,78.8,121.6,86.6,115.9,91.1z"/>
</g>
</svg>
