<?xml version="1.0" encoding="utf-8"?>
<!-- Generator: Adobe Illustrator 26.1.0, SVG Export Plug-In . SVG Version: 6.00 Build 0)  -->
<!DOCTYPE svg PUBLIC "-//W3C//DTD SVG 1.1//EN" "http://www.w3.org/Graphics/SVG/1.1/DTD/svg11.dtd" [
	<!ENTITY ns_extend "http://ns.adobe.com/Extensibility/1.0/">
	<!ENTITY ns_ai "http://ns.adobe.com/AdobeIllustrator/10.0/">
	<!ENTITY ns_graphs "http://ns.adobe.com/Graphs/1.0/">
	<!ENTITY ns_vars "http://ns.adobe.com/Variables/1.0/">
	<!ENTITY ns_imrep "http://ns.adobe.com/ImageReplacement/1.0/">
	<!ENTITY ns_sfw "http://ns.adobe.com/SaveForWeb/1.0/">
	<!ENTITY ns_custom "http://ns.adobe.com/GenericCustomNamespace/1.0/">
	<!ENTITY ns_adobe_xpath "http://ns.adobe.com/XPath/1.0/">
]>
<svg version="1.1" id="Layer_1" xmlns:x="&ns_extend;" xmlns:i="&ns_ai;" xmlns:graph="&ns_graphs;"
	 xmlns="http://www.w3.org/2000/svg" xmlns:xlink="http://www.w3.org/1999/xlink" x="0px" y="0px" viewBox="0 0 198.4 198.4"
	 style="enable-background:new 0 0 198.4 198.4;" xml:space="preserve">
<style type="text/css">
	.st0{fill:#0A293A;}
	.st1{fill:#FFFFFF;}
</style>
<metadata>
	<sfw  xmlns="&ns_sfw;">
		<slices></slices>
		<sliceSourceBounds  bottomLeftOrigin="true" height="142" width="113.4" x="35.6" y="27.6"></sliceSourceBounds>
	</sfw>
</metadata>
<g>
	<path class="st0" d="M127.4,69C127.4,69,127.3,69.1,127.4,69c-0.3,0.3-0.5,0.6-0.8,0.9c-1,0.9-1.8,2-2.2,3.2
		c-0.2,0.6-0.4,1.4-0.6,2.4c-0.2,1.9,0.2,4,1.3,6c0.2,0.4,0.4,0.7,0.7,1.1c0.1,0.2,0.3,0.4,0.4,0.6l0.2,0.4l-0.3,0.3
		c-1.7,1.9-3.5,4.1-3.6,7.2c-0.1,2.9,0.9,5.3,3.2,7.6l0.3,0.3l-0.2,0.4c-3,5.4-2.1,10,2.9,14.3c0.1,0,0.2,0.1,0.3,0.1
		c0.1,0,0.2,0.1,0.3,0.1c0.1,0,0.2,0.1,0.4,0.1c0.1,0,0.2,0.1,0.3,0.1c0.1,0,0.3,0.1,0.4,0.1c0.1,0,0.2,0.1,0.3,0.1
		c0.1,0,0.3,0.1,0.5,0.1c0.1,0,0.2,0,0.3,0.1c0.2,0,0.3,0,0.5,0.1c0.1,0,0.2,0,0.3,0c0.2,0,0.4,0,0.6,0c0.1,0,0.2,0,0.3,0
		c0.2,0,0.4,0,0.6,0c0.1,0,0.1,0,0.2,0c0.3,0,0.6-0.1,0.8-0.2l0.7-0.2v0.1c0.3-0.1,0.6-0.3,0.9-0.4c1.2-0.4,2.3-1,3.4-1.5
		c3.5-2,5.1-5.1,4.7-8.9c-0.2-1.3-0.7-2.7-1.2-4.1c-0.3-0.7-0.5-1.4-0.8-2.1l-0.1-0.3l0.3-0.2c4.1-3.9,4.4-8.6,1-13.9l-0.2-0.4
		l0.3-0.3c3.5-3.6,4.5-7.2,2.8-11c-1.8-4.4-5.4-6.2-11.2-5.6l-0.2,0c-0.2,0-0.3,0.1-0.6,0.1c-0.1,0-0.3,0.1-0.5,0.1
		c-0.1,0-0.2,0-0.2,0.1c-0.2,0-0.3,0.1-0.5,0.1c-0.1,0-0.2,0.1-0.4,0.1c-0.2,0.1-0.3,0.1-0.5,0.2c-0.1,0.1-0.3,0.1-0.4,0.2
		c-0.2,0.1-0.3,0.1-0.5,0.2c-0.2,0.1-0.3,0.1-0.5,0.2c-0.2,0.1-0.3,0.2-0.5,0.2c-0.2,0.1-0.4,0.2-0.5,0.3c-0.2,0.1-0.3,0.2-0.5,0.3
		c-0.2,0.1-0.4,0.2-0.6,0.3c-0.2,0.1-0.3,0.2-0.5,0.3c-0.2,0.1-0.3,0.2-0.5,0.3c0,0,0,0,0,0.1C127.8,68.5,127.6,68.8,127.4,69z
		 M139.1,104c-0.2,2.4-1.9,3.4-3.7,4.1c-0.7,0.3-1.5,0.6-2.3,0.6c-0.8,0-1.7-0.3-2.5-1c-1.2-1.2-1.4-2.7-0.6-4.4
		c0.8-1.8,4.4-3.1,6.2-2.7c1.6,0.4,2.5,1.5,2.9,3.3L139.1,104L139.1,104z M130.9,73.6c2.1-1.2,4.2-2.1,6.3-2.8
		c0.9-0.3,1.9-0.1,2.6,0.4c1,0.7,1.7,2,1.8,3.6l0,0.2l-0.1,0.2c-0.1,0.1-0.2,0.3-0.3,0.5c-0.4,0.6-0.9,1.4-1.7,1.9
		c-1.7,1.1-3.6,1.8-5.2,2.4c-0.5,0.2-0.9,0.3-1.4,0.3c-1.3,0-2.4-0.7-3.1-2C128.7,76.5,129.2,74.5,130.9,73.6z M129.5,88.5
		c1.9-1.1,4-2,6.3-2.9c1.5-0.5,3.1,0.1,3.9,1.7c0.8,1.5,1,3.5-0.7,4.5h0c-1.6,1-3.2,1.8-5,2.6c-0.8,0.4-1.5,0.7-2.3,1.1l-0.3,0.2
		l-0.3-0.2c-0.3-0.3-0.6-0.5-1-0.8c-0.7-0.5-1.3-1-1.7-1.7C127.5,91.2,128,89.4,129.5,88.5z"/>
	<path class="st0" d="M135.5,46c0.7-0.5,1.6-0.8,3-1.2c1.9-0.5,3.7,0.2,4.5,1.8c0.8,1.8,0.3,3.8-1.3,4.7c-1.4,0.8-2.8,1.4-4.3,2.1
		c-0.6,0.3-1.2,0.5-1.8,0.8v6.1c0.3-0.2,0.7-0.4,1.3-0.7c0.9-0.4,1.8-0.8,2.7-1.2c1.6-0.7,3.3-1.4,4.9-2.3c3.8-2.2,5.6-6.6,4.2-10.8
		c-1.4-4.3-5.4-6.8-10.1-6.3c-0.7,0.1-1.4,0.2-2.2,0.4c-0.2,0.1-0.5,0.1-0.7,0.2L135.5,46L135.5,46z"/>
	<path class="st1" d="M127.9,68.1C127.9,68.1,127.9,68.2,127.9,68.1C127.9,68.2,127.9,68.2,127.9,68.1
		C127.9,68.2,127.9,68.2,127.9,68.1z"/>
	<path class="st0" d="M109,123.9c-0.5,0.5-1.1,1-1.6,1.5c-0.7,0.6-1.3,1.2-1.9,1.9c-4.7,5.2-10.6,6.7-17.9,4.6
		c-0.5-0.1-1.1-0.3-1.6-0.5c-0.7-0.2-1.3-0.5-2-0.6c-1.9-0.4-3.1,0.1-3.7,1.7c-0.7,2,0.9,3,1.9,3.5c0.6,0.3,1.2,0.5,1.9,0.7
		c0.4,0.1,0.8,0.3,1.3,0.5l0.5,0.2l-4.1,10.6l-0.5-0.1c-8.7-1.8-16.9-4.7-25.2-8.8l-0.5-0.2l2.7-6.2c1.9-4.3,3.6-8.4,5.5-12.6
		c1.4-3.3,2-6.4,1.8-9.7c-0.2-2.3-0.3-4.6-0.4-6.9c-0.2-2.7-0.3-5.5-0.5-8.3c-0.3-4.4,0.4-8.6,2.1-12.5c0.2-0.5,0.5-1.1,0.8-1.6
		c0.6-1.2,1.2-2.3,1.5-3.5c0.8-3.1,1.7-6.3,1.9-9.5c0.2-3.4,0.2-7,0.1-10.4c0-1.5,0-3,0-4.4V49l0.6,0c3.9,0.1,6.8,1.9,8.4,4.8v-8.5
		c-0.6-0.2-1.1-0.4-1.6-0.6c-1.4-0.5-2.6-1-3.9-1.3c-2.8-0.7-5-0.4-6.6,0.9c-1.6,1.2-2.4,3.4-2.4,6.2c0,5-0.1,10.9,0,16.7
		c0,3.4-0.6,6.6-2.1,9.8c-1.2,2.6-2.5,5.6-3.4,8.8c-1.6,5.4-1,11.1-0.4,16.6l0.1,1c0.6,5.8,0.7,12.7-2.9,19.5
		c-1.4,2.6-2.8,4.7-6.4,4c-0.5-0.1-1.2,0-1.8,0.1l-0.3,0c-3.6,0.6-5.7,2.3-6.7,5.5c-1,3.2-2.2,6.5-3.4,9.6c-0.6,1.6-1.2,3.2-1.8,4.7
		c-0.3,0.9-0.7,1.9-0.7,2.8c-0.1,1.3,0.5,2.2,1.8,2.6c1.2,0.4,2.3,0.1,3-1c0.4-0.6,0.6-1.3,0.9-2c0.1-0.2,0.2-0.4,0.2-0.7
		c0.8-2.1,1.6-4.2,2.4-6.3l1.3-3.3l0.6,0.4c14.5,9.2,29.9,14.4,47.1,15.7l0.7,0.1l-0.3,0.7c-0.4,1-0.7,1.9-1.1,2.9
		c-0.8,2.2-1.5,4.2-2.5,6.2c-1.2,2.5-0.9,4.3,1,5.9h1.8c0.2-0.3,0.4-0.6,0.7-0.9c0.6-0.8,1.2-1.6,1.5-2.5c1-2.5,2-5,2.9-7.5
		c1-2.7,2.1-5.4,3.2-8.1c1.1-2.7,0.7-4.9-1.4-7.1c-0.8-0.8-1.7-1.6-2.6-2.4c-0.4-0.4-0.9-0.7-1.3-1.1c-0.4-0.4-0.8-0.7-1.3-1.2
		l-1.9-1.8l1.4,0c6,0,10.9-2.3,15.6-7c0.9-0.9,1.8-1.7,2.7-2.6c1.3-1.2,2.7-2.5,3.8-3.8c1.1-1.3,2.3-2.3,3.5-3h-9
		c-0.1,0.2-0.3,0.4-0.4,0.6C109.7,123.1,109.4,123.5,109,123.9z"/>
	<polygon class="st1" points="135.5,53.1 135.5,53.1 135.5,53.1 135.5,53 	"/>
	<path class="st1" d="M135.5,47.9L135.5,47.9l0,0.1C135.5,48,135.5,48,135.5,47.9L135.5,47.9z"/>
	<path class="st0" d="M128.6,114.7c-0.5,0.1-1,0.2-1.4,0.3c-0.8,0.2-1.4,0.3-2.1,0.3c-13.3,0-24.3,0-34.6,0c-1.6,0-2.7-0.2-3.2-0.9
		c-0.6-0.7-0.4-1.9,0.1-3.5c0.3-1.1,0.7-2.3,1-3.4c0.9-3,1.9-6.2,2.6-9.3c1.1-4.8,0.6-10-1.5-15.3c-1.9-4.8-2.8-10-2.7-16.2
		c0.1-6.3,0.1-12.8,0-19c0-2.8,0-5.6,0-8.4c0-0.9,0-1.8,0.1-2.7c0.1-1.4,0.9-2.2,2.2-2.2c0.8,0,1.5,0,2.3,0l32.7,0
		c0.8,0,1.5,0,2.3,0c1.3,0.1,2.1,0.9,2.2,2.2c0,0.8,0,1.5,0,2.3l0,7.2c0,6.2,0,12.4,0,18.6c0,0.6,0,1.1-0.1,1.6
		c0.1-0.1,0.3-0.2,0.5-0.2c0.1-0.1,0.2-0.1,0.3-0.2c0.3-0.2,0.6-0.3,0.9-0.4c0,0,0.1,0,0.1,0c0.3-0.1,0.6-0.3,0.9-0.4
		c0.1,0,0.2-0.1,0.3-0.1c0.2-0.1,0.4-0.1,0.6-0.2c0.1,0,0.2-0.1,0.3-0.1c0.2-0.1,0.3-0.1,0.5-0.2c0.1,0,0.2-0.1,0.3-0.1
		c0.2-0.1,0.3-0.1,0.5-0.1c0.1,0,0.1,0,0.2-0.1c0.2-0.1,0.4-0.1,0.6-0.1l0-11.4c-0.1-0.8-0.1-1.4-0.1-2.1c0-0.3,0-0.6,0-0.8
		c0-0.1,0-0.2,0-0.2c0-0.2,0-0.3,0-0.5c0-0.1,0-0.2,0-0.2c0-0.1,0-0.3,0-0.4c0-0.1,0-0.2,0-0.2c0-0.1,0-0.2,0-0.3V40l0,0l0-0.7
		l-0.2-2.3c-0.4-5.5-3-8.1-8.4-8.1c-13.9-0.1-25.6-0.1-36.6,0c-5.1,0-7.9,2.9-8,8c0,1.8,0,3.6,0,5.5c0,0.9,0,1.8,0,2.7v0.8l-0.1,0
		v11.9c0,0.3,0.1,0.6,0.1,1c0.1,3.2,0.1,6.8,0,11.1c-0.1,4.7,0.7,9.2,2.5,13.5c2.7,6.5,2.9,13.3,0.5,20.1c-0.4,1.1-0.8,2.2-1.1,3.3
		c-0.4,1.3-0.9,2.6-1.3,3.9c-0.9,2.6-0.6,5.3,0.9,7.3c1.5,2,3.9,3.2,6.6,3.1c4.7-0.1,9.4-0.1,14.4-0.1c2.2,0,4.4,0,6.6,0h1.1l0,0.1
		h11.2c1.1-0.2,2.2-0.3,3.5-0.1c3.5,0.4,6.2-1.2,7.5-4.6c0.1-0.3,0.2-0.5,0.4-0.7c-0.2,0-0.4,0-0.6,0c-0.1,0-0.3,0-0.4,0
		c-0.4,0-0.9,0-1.3-0.1c0,0-0.1,0-0.1,0c-0.5-0.1-1-0.2-1.5-0.3c-0.2,0-0.3-0.1-0.5-0.1C129.2,114.9,128.9,114.8,128.6,114.7
		L128.6,114.7z"/>
	<path class="st1" d="M127.1,67.4C127.1,67.4,127.1,67.4,127.1,67.4c0,0,0,0.1-0.1,0.1L127.1,67.4z"/>
	<path class="st1" d="M128,68.1C128,68.1,128,68.1,128,68.1c0.2-0.1,0.3-0.2,0.5-0.3C128.3,67.9,128.1,68,128,68.1z"/>
	<path class="st1" d="M128.6,113.5c0.1,0,0.2,0.1,0.3,0.1C128.8,113.6,128.7,113.6,128.6,113.5C128.6,113.5,128.6,113.5,128.6,113.5
		z"/>
	<polygon class="st1" points="135.2,65.1 135,65.2 135.2,65.1 	"/>
	<path class="st1" d="M127.1,67.4L127.1,67.4c0,0,0.1-0.1,0.1-0.1L127.1,67.4z"/>
	<path class="st1" d="M127.6,67.6c0.1-0.2,0.2-0.5,0.3-0.7c-0.2,0.1-0.4,0.3-0.6,0.4L127.6,67.6z"/>
	<path class="st1" d="M127.1,67.4l-0.1,0.1l0.4,0.3c0,0,0.1-0.1,0.1-0.1c0,0,0-0.1,0.1-0.1l-0.4-0.3
		C127.1,67.3,127.1,67.4,127.1,67.4z"/>
	<polygon class="st1" points="134.4,64.2 134.4,53.1 134.3,52.7 	"/>
	<path class="st1" d="M134.4,47.9L134.4,47.9c0,0.1,0,0.2,0,0.3C134.3,48.1,134.3,48,134.4,47.9z"/>
	<path class="st1" d="M123.8,72.9C123.8,72.8,123.8,72.8,123.8,72.9L123.8,72.9C123.8,72.8,123.8,72.8,123.8,72.9z"/>
	<path class="st1" d="M123.8,72.9l0.5,0.2c0,0,0,0,0,0c0,0,0,0,0,0L123.8,72.9C123.8,72.8,123.8,72.8,123.8,72.9
		C123.8,72.9,123.8,72.9,123.8,72.9z"/>
	<path class="st1" d="M123.8,72.9C123.8,72.9,123.8,72.9,123.8,72.9C123.8,72.9,123.8,72.9,123.8,72.9L123.8,72.9z"/>
</g>
</svg>
