<?xml version="1.0" encoding="utf-8"?>
<!-- Generator: Adobe Illustrator 26.1.0, SVG Export Plug-In . SVG Version: 6.00 Build 0)  -->
<!DOCTYPE svg PUBLIC "-//W3C//DTD SVG 1.1//EN" "http://www.w3.org/Graphics/SVG/1.1/DTD/svg11.dtd" [
	<!ENTITY ns_extend "http://ns.adobe.com/Extensibility/1.0/">
	<!ENTITY ns_ai "http://ns.adobe.com/AdobeIllustrator/10.0/">
	<!ENTITY ns_graphs "http://ns.adobe.com/Graphs/1.0/">
	<!ENTITY ns_vars "http://ns.adobe.com/Variables/1.0/">
	<!ENTITY ns_imrep "http://ns.adobe.com/ImageReplacement/1.0/">
	<!ENTITY ns_sfw "http://ns.adobe.com/SaveForWeb/1.0/">
	<!ENTITY ns_custom "http://ns.adobe.com/GenericCustomNamespace/1.0/">
	<!ENTITY ns_adobe_xpath "http://ns.adobe.com/XPath/1.0/">
]>
<svg version="1.1" id="Layer_1" xmlns:x="&ns_extend;" xmlns:i="&ns_ai;" xmlns:graph="&ns_graphs;"
	 xmlns="http://www.w3.org/2000/svg" xmlns:xlink="http://www.w3.org/1999/xlink" x="0px" y="0px" viewBox="0 0 198.4 198.4"
	 style="enable-background:new 0 0 198.4 198.4;" xml:space="preserve">
<style type="text/css">
	.st0{fill:#0A293A;}
	.st1{filter:url(#Adobe_OpacityMaskFilter);}
	.st2{fill-rule:evenodd;clip-rule:evenodd;fill:#FFFFFF;}
	.st3{mask:url(#mask-4_00000007396391849932616140000009421825785515846330_);fill-rule:evenodd;clip-rule:evenodd;fill:#0A293A;}
	.st4{filter:url(#Adobe_OpacityMaskFilter_00000005957605919786615860000017380144615715175321_);}
	.st5{mask:url(#mask-4_00000125603997272938031060000017039079387959866537_);fill-rule:evenodd;clip-rule:evenodd;fill:#0A293A;}
	.st6{filter:url(#Adobe_OpacityMaskFilter_00000106869907961339145510000009191201689742792081_);}
	.st7{mask:url(#mask-4_00000127037621441007088250000014755384067352671155_);fill:#0A293A;}
</style>
<metadata>
	<sfw  xmlns="&ns_sfw;">
		<slices></slices>
		<sliceSourceBounds  bottomLeftOrigin="true" height="146.7" width="118.7" x="39.6" y="25.8"></sliceSourceBounds>
	</sfw>
</metadata>
<path class="st0" d="M111.9,45.7L111.9,45.7c-0.5,0.2-0.9,0.5-1.3,0.7l-0.4,0.3c-3.1,1.9-6.7,2.8-11,2.9c-4.4,0.1-8.5-1.1-12.6-3.4
	c-0.8-0.5-1.6-0.7-2.4-0.7c-1,0-1.8,0.4-2.3,1.2c-0.4,0.7-0.5,1.4-0.4,2.1c0.2,0.6,0.6,1.6,2,2.4c5.1,3,10.1,4.5,15.3,4.7
	c0.1,0,0.2,0,0.3,0c0.8-0.1,1.6-0.2,2.3-0.4c1.8-0.3,3.8-0.6,5.6-1c2.8-0.7,5.4-2,7.8-3.8c1.5-1.1,1.8-2.5,0.9-3.9
	C115,45.4,113.4,45,111.9,45.7z"/>
<defs>
	<filter id="Adobe_OpacityMaskFilter" filterUnits="userSpaceOnUse" x="47.7" y="81.7" width="73.5" height="5.2">
		<feColorMatrix  type="matrix" values="1 0 0 0 0  0 1 0 0 0  0 0 1 0 0  0 0 0 1 0"/>
	</filter>
</defs>
<mask maskUnits="userSpaceOnUse" x="47.7" y="81.7" width="73.5" height="5.2" id="mask-4_00000007396391849932616140000009421825785515846330_">
	<g class="st1">
		<polygon id="path-3_00000026134975043595196030000008278076940917569446_" class="st2" points="38.6,144 159.3,144 159.3,44.6 
			38.6,44.6 		"/>
	</g>
</mask>
<polygon id="Fill-6" class="st3" points="47.7,86.9 121.2,86.9 121.2,81.7 47.7,81.7 "/>
<defs>
	
		<filter id="Adobe_OpacityMaskFilter_00000147928144006229356830000016713489983915278741_" filterUnits="userSpaceOnUse" x="119.9" y="81.7" width="29.1" height="5.2">
		<feColorMatrix  type="matrix" values="1 0 0 0 0  0 1 0 0 0  0 0 1 0 0  0 0 0 1 0"/>
	</filter>
</defs>
<mask maskUnits="userSpaceOnUse" x="119.9" y="81.7" width="29.1" height="5.2" id="mask-4_00000125603997272938031060000017039079387959866537_">
	<g style="filter:url(#Adobe_OpacityMaskFilter_00000147928144006229356830000016713489983915278741_);">
		<polygon id="path-3_00000153697521585262761180000008303982616911084423_" class="st2" points="38.6,144 159.3,144 159.3,44.6 
			38.6,44.6 		"/>
	</g>
</mask>
<polygon id="Fill-8" class="st5" points="119.9,86.9 148.8,86.9 149,81.7 119.9,81.7 "/>
<defs>
	
		<filter id="Adobe_OpacityMaskFilter_00000106826357710654017520000018050201686793158330_" filterUnits="userSpaceOnUse" x="75.6" y="67.1" width="46.8" height="34.3">
		<feColorMatrix  type="matrix" values="1 0 0 0 0  0 1 0 0 0  0 0 1 0 0  0 0 0 1 0"/>
	</filter>
</defs>
<mask maskUnits="userSpaceOnUse" x="75.6" y="67.1" width="46.8" height="34.3" id="mask-4_00000127037621441007088250000014755384067352671155_">
	<g style="filter:url(#Adobe_OpacityMaskFilter_00000106826357710654017520000018050201686793158330_);">
		<polygon id="path-3_00000120546619654259139570000002669849753492749704_" class="st2" points="38.6,173.6 159.3,173.6 
			159.3,24.9 38.6,24.9 		"/>
	</g>
</mask>
<path class="st7" d="M113.9,101.5H84.1c-4.7,0-8.5-3.8-8.5-8.5V75.6c0-4.7,3.8-8.5,8.5-8.5h29.8c4.7,0,8.5,3.8,8.5,8.5V93
	C122.4,97.7,118.6,101.5,113.9,101.5z M84.1,72.1c-1.9,0-3.5,1.6-3.5,3.5V93c0,1.9,1.6,3.5,3.5,3.5h29.8c1.9,0,3.5-1.6,3.5-3.5V75.6
	c0-1.9-1.6-3.5-3.5-3.5H84.1z"/>
<path class="st0" d="M148.7,34.3c-8-7.8-17.8-10.1-30.1-7.1c-4.5,1.1-8.8,3.1-12.7,5.1c-4.7,2.4-9.3,2.4-14.1,0
	c-6.7-3.5-12.2-5.3-17.8-6c-5.9-0.7-10.9-0.2-15.2,1.6c-10.2,4.3-16.5,12.5-18.5,24.5c-0.8,4.9-0.9,10.2-0.2,16.4
	c0.7,6.3,2.1,12.5,4.2,18.4c0.8,2.4,1.8,4.7,2.7,7c0.9,2.2,1.8,4.5,2.6,6.7c1,2.8,2.1,6.6,1.2,10.8c-0.5,2.5-0.8,5.1-1.1,7.5l0,0.1
	c-1.1,10.8,0,21.3,3.5,31.2c2.1,6,5.1,11.8,9,17.1c2.2,3,4.9,4.6,8.1,4.9c6.3,0.5,11.3-3.6,12.4-9.9L83,161c0.1-0.8,0.3-1.7,0.4-2.5
	c0.6-3.3,1.1-6.5,1.7-9.8l1.7-9.9c0.2-1.2,0.4-2.4,0.6-3.6c0.3-1.8,0.6-3.6,0.9-5.4l0.1-0.6c0.2-1.4,0.5-2.7,1-4
	c0.7-2,2.1-3.5,4.2-4.4c1.3-0.6,2.6-0.7,3.9-0.7c0.5,0,1.1,0,1.6,0c0.5,0,0.9,0,1.4,0c5,0.1,8.1,2.9,8.8,8c0.5,3.5,1.1,7,1.7,10.3
	l0.6,3.2c0.7,4.3,1.5,8.5,2.3,12.8l0.4,2.3c0.5,2.6,0.9,5.3,1.6,8c0.5,2.3,1.8,4.2,3.6,5.5c2.5,1.9,5.5,2.7,8.3,2.4
	c3.1-0.3,5.7-2,7.7-4.7c2.7-3.7,5-7.6,6.9-11.5c3.1-6.7,5.1-13.9,5.8-21.5c0.6-6.8,0.3-14.1-1.1-23.6c-0.5-3.3-0.2-6.5,0.9-9.6
	c0.8-2.3,1.7-4.6,2.6-6.8l0-0.1c1.2-3.1,2.5-6.2,3.5-9.4c2.8-8.4,4.1-16.4,4.2-25.2c0.2-4.3-1-9.5-2-13.1
	C154.8,42,152.3,37.7,148.7,34.3z M151.6,69.2c-0.6,4.3-1.6,8.5-2.7,12.4c0,0.2-0.1,0.3-0.1,0.4l0,0l-0.3,1
	c-0.6,2.1-1.3,4.1-2.1,6.4c-0.3,1-0.7,2-1,3l-0.5,1.2l0,0l-0.1,0.2c-0.8,2-2.3,5.7-3.2,8.5c-0.9,3.5-1,7.2-0.1,11.8
	c1.6,9,1.7,16.9,0.3,24.3c-2,10.2-5.5,18.5-10.8,25.4c-1.4,1.8-2.6,2.6-4.2,2.6c-0.7,0-1.5-0.2-2.3-0.5c-1.7-0.6-2.6-1.8-3.1-3.9
	c-0.6-2.7-1.1-5.6-1.5-8.3l-1.4-7.9c-1.2-6.8-2.4-13.6-3.6-20.4c-1-6.1-6.5-10.5-11.1-11.1c-1.7-0.2-3.6-0.5-5.6-0.5
	c-2.3,0-4.4,0.3-6.2,1c-4.2,1.5-7,4.4-8.2,8.7c-0.7,2.4-1.1,4.9-1.6,7.3l-0.3,1.5c-0.2,1.4-0.5,2.8-0.7,4.1l0,0.2
	c-0.2,1.1-0.3,2.2-0.5,3.4c-1.1,6.6-2.3,13.3-3.5,19.9c-0.1,0.5-0.2,1-0.4,1.5c-0.1,0.5-0.3,0.9-0.4,1.4c-0.3,1.6-1.8,3-3.7,3.5
	c-2,0.5-3.9-0.1-5.1-1.6c-3.1-3.9-5.7-8.3-7.8-13.6c-1.8-4.5-3.1-9.2-3.8-13.9c-0.7-4.5-1.2-9.9-0.5-15.4c0.1-0.8,0.2-1.6,0.3-2.4
	c0.4-2.8,0.8-5.7,0.9-8.5c0.2-2.7,0.3-5.6-0.4-8.4c-0.8-2.9-2.7-7.3-3.5-9.1l-0.5-1.1l-0.7-1.9c-0.3-0.8-0.7-1.8-0.9-2.6l-0.1-0.2
	c-0.2-0.5-0.3-1-0.5-1.5c-0.3-0.9-0.7-1.9-1.1-3.1l-0.4-1.1l0,0c-1.5-4.9-2.5-9.8-2.9-14.7c-0.7-7.2-0.9-15.5,3.3-23.1
	c4.1-7.5,9.9-11.5,17.9-12.3c5.8-0.6,11.7,0.6,18.3,3.6l1.2,0.5c2,0.9,4,1.9,6.1,2.7c5.1,2.2,10.4,1.7,15.8-1.3
	c5.8-3.3,11-5,16.4-5.6c10-1.1,18,2.8,23.1,11c2,3.3,3.2,7.1,3.9,12.2C152.4,59.5,152.3,64,151.6,69.2z"/>
</svg>
